<svg width="28" height="29" viewBox="0 0 28 29" fill="none" xmlns="http://www.w3.org/2000/svg">
<g filter="url(#filter0_d_535_114)">
<path d="M6.75 0.875C5.57639 0.875 4.625 1.82639 4.625 3C4.625 4.1736 5.57639 5.125 6.75 5.125C7.9236 5.125 8.875 4.1736 8.875 3C8.875 1.82639 7.9236 0.875 6.75 0.875Z" fill="black"/>
<path d="M4.75 6.875C4.68096 6.875 4.625 6.93096 4.625 7V20C4.625 20.069 4.68096 20.125 4.75 20.125H8.75C8.81904 20.125 8.875 20.069 8.875 20V7C8.875 6.93096 8.81904 6.875 8.75 6.875H4.75Z" fill="black"/>
<path d="M11.25 6.875C11.181 6.875 11.125 6.93096 11.125 7V20C11.125 20.069 11.181 20.125 11.25 20.125H15.25C15.319 20.125 15.375 20.069 15.375 20V13C15.375 12.5027 15.5725 12.0258 15.9242 11.6742C16.2758 11.3225 16.7527 11.125 17.25 11.125C17.7473 11.125 18.2242 11.3225 18.5758 11.6742C18.9275 12.0258 19.125 12.5027 19.125 13V20C19.125 20.069 19.181 20.125 19.25 20.125H23.25C23.319 20.125 23.375 20.069 23.375 20V11.3802C23.375 8.9535 21.2644 7.05499 18.8498 7.2745C18.1052 7.34219 17.369 7.52731 16.6815 7.82194L15.375 8.38186V7C15.375 6.93096 15.319 6.875 15.25 6.875H11.25Z" fill="black"/>
</g>
<defs>
<filter id="filter0_d_535_114" x="0.625" y="0.875" width="26.75" height="27.25" filterUnits="userSpaceOnUse" color-interpolation-filters="sRGB">
<feFlood flood-opacity="0" result="BackgroundImageFix"/>
<feColorMatrix in="SourceAlpha" type="matrix" values="0 0 0 0 0 0 0 0 0 0 0 0 0 0 0 0 0 0 127 0" result="hardAlpha"/>
<feOffset dy="4"/>
<feGaussianBlur stdDeviation="2"/>
<feComposite in2="hardAlpha" operator="out"/>
<feColorMatrix type="matrix" values="0 0 0 0 0 0 0 0 0 0 0 0 0 0 0 0 0 0 0.25 0"/>
<feBlend mode="normal" in2="BackgroundImageFix" result="effect1_dropShadow_535_114"/>
<feBlend mode="normal" in="SourceGraphic" in2="effect1_dropShadow_535_114" result="shape"/>
</filter>
</defs>
</svg>
