<svg width="378" height="549" viewBox="0 0 378 549" fill="none" xmlns="http://www.w3.org/2000/svg">
<g style="mix-blend-mode:difference">
<path d="M18.1964 262.126C18.1964 263.062 18.0464 263.962 17.7464 264.826C17.4344 265.678 17.0384 266.338 16.5584 266.806L15.5324 266.284C15.9644 265.84 16.3304 265.246 16.6304 264.502C16.9184 263.746 17.0624 262.954 17.0624 262.126C17.0624 261.334 16.9664 260.692 16.7744 260.2C16.5704 259.696 16.3004 259.33 15.9644 259.102C15.6284 258.862 15.2564 258.742 14.8484 258.742C14.3564 258.742 13.9604 258.886 13.6604 259.174C13.3604 259.45 13.1264 259.816 12.9584 260.272C12.7784 260.728 12.6224 261.232 12.4904 261.784C12.3584 262.336 12.2204 262.888 12.0764 263.44C11.9204 263.992 11.7164 264.502 11.4644 264.97C11.2124 265.426 10.8824 265.798 10.4744 266.086C10.0544 266.362 9.50838 266.5 8.83638 266.5C8.21238 266.5 7.64238 266.338 7.12638 266.014C6.59838 265.678 6.17838 265.168 5.86638 264.484C5.54238 263.8 5.38038 262.924 5.38038 261.856C5.38038 261.148 5.48238 260.446 5.68638 259.75C5.87838 259.054 6.14838 258.454 6.49638 257.95L7.55838 258.4C7.19838 258.94 6.93438 259.516 6.76638 260.128C6.59838 260.728 6.51438 261.31 6.51438 261.874C6.51438 262.63 6.61638 263.254 6.82038 263.746C7.02438 264.238 7.30038 264.604 7.64838 264.844C7.98438 265.072 8.36838 265.186 8.80038 265.186C9.29238 265.186 9.68838 265.048 9.98838 264.772C10.2884 264.484 10.5224 264.112 10.6904 263.656C10.8584 263.188 11.0084 262.678 11.1404 262.126C11.2724 261.574 11.4164 261.028 11.5724 260.488C11.7284 259.936 11.9324 259.432 12.1844 258.976C12.4244 258.508 12.7484 258.136 13.1564 257.86C13.5644 257.572 14.0984 257.428 14.7584 257.428C15.3704 257.428 15.9404 257.596 16.4684 257.932C16.9844 258.268 17.4044 258.784 17.7284 259.48C18.0404 260.164 18.1964 261.046 18.1964 262.126Z" fill="white"/>
<path d="M18.1964 246.825C18.1964 247.773 18.0404 248.655 17.7284 249.471C17.4044 250.275 16.9544 250.977 16.3784 251.577C15.7904 252.165 15.1124 252.627 14.3444 252.963C13.5644 253.287 12.7124 253.449 11.7884 253.449C10.8644 253.449 10.0184 253.287 9.25038 252.963C8.47038 252.627 7.79238 252.165 7.21638 251.577C6.62838 250.977 6.17838 250.275 5.86638 249.471C5.54238 248.667 5.38038 247.785 5.38038 246.825C5.38038 245.877 5.54238 245.001 5.86638 244.197C6.17838 243.393 6.62238 242.697 7.19838 242.109C7.77438 241.509 8.45238 241.047 9.23238 240.723C10.0124 240.387 10.8644 240.219 11.7884 240.219C12.7124 240.219 13.5644 240.387 14.3444 240.723C15.1244 241.047 15.8024 241.509 16.3784 242.109C16.9544 242.697 17.4044 243.393 17.7284 244.197C18.0404 245.001 18.1964 245.877 18.1964 246.825ZM17.0084 246.825C17.0084 246.069 16.8824 245.373 16.6304 244.737C16.3664 244.089 16.0004 243.531 15.5324 243.063C15.0524 242.583 14.5004 242.211 13.8764 241.947C13.2404 241.683 12.5444 241.551 11.7884 241.551C11.0324 241.551 10.3424 241.683 9.71838 241.947C9.08238 242.211 8.53038 242.583 8.06238 243.063C7.58238 243.531 7.21638 244.089 6.96438 244.737C6.70038 245.373 6.56838 246.069 6.56838 246.825C6.56838 247.581 6.70038 248.283 6.96438 248.931C7.21638 249.579 7.58238 250.143 8.06238 250.623C8.53038 251.091 9.08238 251.463 9.71838 251.739C10.3424 252.003 11.0324 252.135 11.7884 252.135C12.5324 252.135 13.2224 252.003 13.8584 251.739C14.4944 251.463 15.0524 251.091 15.5324 250.623C16.0004 250.143 16.3664 249.579 16.6304 248.931C16.8824 248.283 17.0084 247.581 17.0084 246.825Z" fill="white"/>
<path d="M11.5904 234.559V227.899H12.7424V234.559H11.5904ZM18.0884 234.415V235.747H5.48838L5.48838 227.107H6.64038L6.64038 234.415H18.0884Z" fill="white"/>
<path d="M18.0884 220.219H6.64038V224.647H5.48838L5.48838 214.459H6.64038L6.64038 218.887H18.0884V220.219Z" fill="white"/>
<path d="M13.7684 202.719H12.6524V198.003H13.7684V202.719Z" fill="white"/>
<path d="M18.1944 180.134C18.1793 181.07 18.0149 181.967 17.7011 182.826C17.3755 183.673 16.9689 184.327 16.4815 184.787L15.464 184.249C15.903 183.812 16.2785 183.224 16.5904 182.485C16.8905 181.733 17.0472 180.944 17.0605 180.116C17.0732 179.324 16.9875 178.68 16.8035 178.185C16.6076 177.678 16.3435 177.308 16.0112 177.075C15.6791 176.829 15.3091 176.703 14.9011 176.697C14.4092 176.689 14.0109 176.826 13.7063 177.11C13.4019 177.381 13.1621 177.743 12.9868 178.196C12.7995 178.649 12.6354 179.151 12.4946 179.7C12.3537 180.25 12.2069 180.8 12.0541 181.35C11.8892 181.899 11.6771 182.406 11.4176 182.87C11.1583 183.321 10.8224 183.688 10.4098 183.97C9.98542 184.239 9.43728 184.368 8.76536 184.357C8.14144 184.347 7.57412 184.176 7.06339 183.844C6.54085 183.499 6.12909 182.983 5.82811 182.294C5.51513 181.605 5.36721 180.726 5.38435 179.658C5.39572 178.95 5.50897 178.25 5.72412 177.558C5.92727 176.865 6.20686 176.269 6.56291 175.771L7.61755 176.238C7.24893 176.772 6.97571 177.344 6.79791 177.953C6.6203 178.55 6.52697 179.131 6.51792 179.695C6.50578 180.45 6.59775 181.076 6.79383 181.571C6.98991 182.066 7.26 182.437 7.6041 182.682C7.9364 182.916 8.31852 183.036 8.75046 183.043C9.2424 183.051 9.64056 182.919 9.94495 182.648C10.2495 182.365 10.4895 181.997 10.6648 181.543C10.8403 181.078 10.9984 180.571 11.1393 180.021C11.2801 179.471 11.4329 178.927 11.5975 178.39C11.7624 177.84 11.9744 177.34 12.2337 176.888C12.4812 176.424 12.8111 176.057 13.2235 175.788C13.6361 175.506 14.1723 175.371 14.8322 175.381C15.4441 175.391 16.0114 175.568 16.5339 175.913C17.0445 176.257 17.4561 176.78 17.7689 177.481C18.0699 178.17 18.2117 179.054 18.1944 180.134Z" fill="white"/>
<path d="M19.1017 165.866C18.9856 166.807 18.7227 167.663 18.3131 168.435C17.8931 169.193 17.3605 169.835 16.7154 170.36C16.0598 170.871 15.3303 171.247 14.5269 171.486C13.7131 171.712 12.8477 171.768 11.9307 171.655C11.0136 171.542 10.1938 171.278 9.47128 170.862C8.7383 170.433 8.12199 169.892 7.62234 169.237C7.11224 168.57 6.7516 167.818 6.54042 166.982C6.31732 166.144 6.26455 165.249 6.38212 164.296C6.49822 163.356 6.76629 162.506 7.18631 161.748C7.59443 160.988 8.12032 160.352 8.764 159.839C9.40914 159.314 10.1386 158.938 10.9524 158.712C11.7677 158.474 12.6339 158.412 13.5509 158.525C14.468 158.638 15.293 158.909 16.0259 159.338C16.7604 159.755 17.3767 160.297 17.8749 160.963C18.3745 161.617 18.7359 162.363 18.959 163.2C19.1702 164.037 19.2178 164.925 19.1017 165.866ZM17.9226 165.72C18.0152 164.97 17.9754 164.264 17.8032 163.602C17.6205 162.926 17.3256 162.328 16.9184 161.806C16.5008 161.271 15.9985 160.834 15.4116 160.496C14.8127 160.156 14.1381 159.939 13.3878 159.847C12.6375 159.754 11.9365 159.801 11.2849 159.986C10.6213 160.17 10.0279 160.472 9.50466 160.891C8.97096 161.297 8.53938 161.806 8.20991 162.418C7.87001 163.017 7.65377 163.692 7.56118 164.442C7.4686 165.192 7.51363 165.905 7.69628 166.581C7.86703 167.254 8.1612 167.859 8.5788 168.394C8.98596 168.916 9.48825 169.353 10.0857 169.705C10.6726 170.043 11.3413 170.259 12.0916 170.351C12.83 170.442 13.531 170.396 14.1945 170.212C14.8595 170.016 15.4589 169.715 15.9926 169.309C16.5158 168.89 16.9482 168.375 17.2895 167.764C17.619 167.152 17.83 166.471 17.9226 165.72Z" fill="white"/>
<path d="M14.5377 152.477L16.0051 145.981L17.1287 146.235L15.6614 152.731L14.5377 152.477ZM20.9078 153.768L20.6143 155.068L8.3239 152.292L10.2275 143.864L11.3512 144.118L9.74106 151.246L20.9078 153.768Z" fill="white"/>
<path d="M24.1699 140.76L13.2233 137.409L11.9272 141.643L10.8257 141.306L13.8077 131.564L14.9092 131.901L13.6132 136.135L24.5598 139.486L24.1699 140.76Z" fill="white"/>
<path d="M25.5369 123.607L24.5121 123.165L26.3789 118.834L27.4038 119.276L25.5369 123.607Z" fill="white"/>
<path d="M39.1427 105.538C38.68 106.351 38.1048 107.06 37.4169 107.662C36.7246 108.249 36.0541 108.627 35.4055 108.796L34.7716 107.836C35.3666 107.663 35.9784 107.328 36.6069 106.829C37.2309 106.314 37.7476 105.697 38.1569 104.977C38.5483 104.289 38.7822 103.683 38.8585 103.161C38.9303 102.622 38.8765 102.17 38.6971 101.806C38.5236 101.431 38.2595 101.143 37.9049 100.941C37.4772 100.698 37.0617 100.627 36.6586 100.73C36.2614 100.821 35.8771 101.024 35.5056 101.337C35.1238 101.644 34.739 102.005 34.3515 102.42C33.9639 102.835 33.5711 103.246 33.173 103.655C32.7646 104.058 32.3352 104.4 31.8848 104.683C31.4403 104.954 30.9696 105.115 30.4725 105.163C29.971 105.196 29.4282 105.046 28.844 104.714C28.3015 104.405 27.8861 103.983 27.5977 103.446C27.3048 102.893 27.1918 102.242 27.2586 101.493C27.3151 100.738 27.6072 99.8968 28.1351 98.9684C28.4851 98.3529 28.9207 97.7931 29.4421 97.2889C29.953 96.7787 30.4843 96.3906 31.0359 96.1245L31.7367 97.0406C31.1568 97.3321 30.6426 97.7023 30.1941 98.1513C29.7515 98.5898 29.3908 99.0542 29.112 99.5445C28.7383 100.202 28.5186 100.795 28.4527 101.323C28.3869 101.852 28.4459 102.306 28.6298 102.687C28.8092 103.051 29.0866 103.34 29.4622 103.554C29.8899 103.797 30.3023 103.873 30.6995 103.781C31.1027 103.679 31.49 103.471 31.8614 103.158C32.2388 102.834 32.6213 102.465 33.0088 102.05C33.3964 101.636 33.7915 101.232 34.194 100.84C34.6025 100.437 35.0289 100.1 35.4734 99.8278C35.9133 99.5396 36.3789 99.3764 36.87 99.3381C37.367 99.2894 37.9024 99.4282 38.4761 99.7544C39.0081 100.057 39.4206 100.485 39.7135 101.038C39.996 101.585 40.106 102.241 40.0437 103.006C39.9768 103.755 39.6765 104.599 39.1427 105.538Z" fill="white"/>
<path d="M46.8123 93.0638C46.2782 93.847 45.6523 94.4877 44.9348 94.986C44.2141 95.4677 43.4467 95.7941 42.6328 95.9652C41.8157 96.1197 40.9953 96.1193 40.1715 95.9642C39.3445 95.7923 38.5494 95.4461 37.786 94.9255C37.0227 94.4048 36.415 93.7943 35.9631 93.0939C35.5081 92.3768 35.2083 91.6131 35.0637 90.8028C34.916 89.9758 34.9398 89.1423 35.1351 88.3022C35.3204 87.4555 35.6836 86.6355 36.2245 85.8424C36.7587 85.0592 37.3861 84.4268 38.1068 83.9452C38.8176 83.4568 39.5765 83.1319 40.3837 82.9707C41.1977 82.7996 42.0181 82.7999 42.845 82.9718C43.6788 83.1337 44.4773 83.475 45.2406 83.9956C46.004 84.5163 46.6132 85.1351 47.0683 85.8522C47.5301 86.5594 47.8299 87.3231 47.9677 88.1433C48.1122 88.9536 48.0918 89.7822 47.9065 90.629C47.7112 91.469 47.3465 92.2806 46.8123 93.0638ZM45.8309 92.3944C46.2568 91.7698 46.5449 91.1238 46.6951 90.4564C46.8421 89.7723 46.8542 89.1051 46.7312 88.4548C46.6051 87.7878 46.3587 87.1694 45.992 86.5997C45.6153 86.0232 45.1147 85.522 44.4901 85.096C43.8656 84.6701 43.2211 84.3903 42.5569 84.2568C41.8827 84.1166 41.2171 84.1128 40.56 84.2457C39.8997 84.3619 39.2829 84.6166 38.7096 85.01C38.1332 85.3866 37.6319 85.8873 37.206 86.5118C36.78 87.1364 36.4935 87.7907 36.3464 88.4748C36.1895 89.1521 36.1741 89.8243 36.3002 90.4913C36.4231 91.1417 36.6695 91.76 37.0394 92.3464C37.4062 92.9161 37.9019 93.4139 38.5264 93.8399C39.1411 94.2591 39.7855 94.5389 40.4597 94.6791C41.1406 94.8095 41.8112 94.8166 42.4714 94.7004C43.1285 94.5675 43.7487 94.3078 44.3319 93.9212C44.9052 93.5279 45.4049 93.0189 45.8309 92.3944Z" fill="white"/>
<path d="M48.7193 79.1375L52.9193 73.9687L53.8133 74.6952L49.6134 79.864L48.7193 79.1375ZM53.8532 83.1235L53.0132 84.1572L43.2344 76.2115L48.683 69.506L49.577 70.2325L44.9685 75.9042L53.8532 83.1235Z" fill="white"/>
<path d="M62.8185 72.5744L54.4755 64.7353L51.4434 67.9624L50.6038 67.1735L57.5801 59.7488L58.4196 60.5376L55.3876 63.7646L63.7306 71.6037L62.8185 72.5744Z" fill="white"/>
<path d="M71.9077 57.5087L71.1848 56.6585L74.7777 53.6037L75.5006 54.4539L71.9077 57.5087Z" fill="white"/>
<path d="M91.3002 47.9602C90.5234 48.4823 89.6928 48.8599 88.8084 49.0929C87.9272 49.3093 87.1585 49.3488 86.5023 49.2115L86.3632 48.0688C86.9727 48.1796 87.6699 48.152 88.4547 47.986C89.2428 47.8033 89.9804 47.4809 90.6676 47.019C91.3249 46.5772 91.8042 46.1394 92.1054 45.7056C92.4099 45.2551 92.563 44.8269 92.5648 44.4208C92.5766 44.0081 92.4686 43.6324 92.241 43.2938C91.9666 42.8854 91.6261 42.6371 91.2198 42.5488C90.8233 42.4538 90.389 42.4637 89.9169 42.5787C89.438 42.6837 88.9327 42.8354 88.4009 43.0338C87.8692 43.2322 87.334 43.4256 86.7956 43.614C86.2504 43.7925 85.7134 43.9077 85.1844 43.9596C84.6653 44.0048 84.1725 43.9385 83.7059 43.7605C83.2425 43.5659 82.8234 43.1898 82.4485 42.632C82.1004 42.1142 81.9169 41.5507 81.8979 40.9417C81.8823 40.3161 82.0712 39.683 82.4648 39.0425C82.8518 38.392 83.4884 37.7689 84.3748 37.1731C84.9624 36.7781 85.6019 36.4712 86.2934 36.2522C86.9781 36.0233 87.6267 35.9126 88.2391 35.9203L88.4581 37.0527C87.8091 37.0552 87.1838 37.1574 86.5821 37.3594C85.9904 37.5547 85.4606 37.8096 84.9925 38.1243C84.365 38.546 83.9041 38.9788 83.6095 39.4225C83.315 39.8663 83.1652 40.2996 83.1602 40.7223C83.1584 41.1283 83.278 41.5106 83.519 41.8691C83.7934 42.2775 84.1289 42.5291 84.5253 42.6241C84.9317 42.7125 85.371 42.6991 85.8431 42.5842C86.3253 42.4625 86.8322 42.3025 87.364 42.1041C87.8957 41.9058 88.4292 41.7207 88.9644 41.5489C89.5096 41.3704 90.0416 41.2586 90.5607 41.2133C91.083 41.1515 91.5725 41.2128 92.0291 41.3975C92.4958 41.5754 92.9132 41.9383 93.2813 42.486C93.6228 42.994 93.8013 43.5607 93.817 44.1864C93.826 44.8021 93.632 45.4385 93.2352 46.0957C92.8415 46.7362 92.1965 47.3577 91.3002 47.9602Z" fill="white"/>
<path d="M103.987 40.0749C103.157 40.5323 102.309 40.8212 101.444 40.9417C100.583 41.0458 99.751 40.9903 98.9476 40.7753C98.1488 40.544 97.417 40.173 96.7522 39.6624C96.0921 39.1355 95.5391 38.4674 95.0933 37.6581C94.6475 36.8487 94.3812 36.0296 94.2944 35.2005C94.2124 34.3552 94.29 33.5385 94.5271 32.7502C94.7689 31.9457 95.1667 31.2129 95.7204 30.5517C96.2683 29.8799 96.9627 29.3125 97.8036 28.8493C98.6339 28.3919 99.4794 28.1112 100.34 28.0071C101.195 27.8924 102.019 27.9455 102.811 28.1663C103.615 28.3814 104.347 28.7523 105.007 29.2792C105.677 29.8003 106.236 30.4655 106.682 31.2749C107.127 32.0842 107.391 32.9115 107.473 33.7569C107.566 34.5964 107.488 35.4132 107.241 36.2072C107.004 36.9954 106.611 37.7254 106.063 38.3971C105.509 39.0583 104.817 39.6176 103.987 40.0749ZM103.414 39.0344C104.076 38.6696 104.625 38.2234 105.06 37.6959C105.501 37.152 105.813 36.5622 105.997 35.9264C106.186 35.2744 106.245 34.6114 106.175 33.9375C106.1 33.253 105.88 32.5797 105.515 31.9175C105.15 31.2553 104.702 30.7147 104.169 30.2955C103.631 29.8658 103.039 29.5617 102.393 29.3834C101.751 29.1888 101.086 29.1374 100.397 29.2293C99.7122 29.305 99.0389 29.5251 98.3767 29.8899C97.7146 30.2547 97.1634 30.709 96.7231 31.2529C96.2771 31.7862 95.9597 32.3789 95.7709 33.031C95.5868 33.6667 95.5272 34.3297 95.5924 35.0199C95.6622 35.6939 95.8795 36.3619 96.2442 37.0241C96.6032 37.6758 97.0517 38.2165 97.5898 38.6462C98.1384 39.0701 98.7335 39.3794 99.375 39.574C100.021 39.7523 100.692 39.8008 101.387 39.7194C102.076 39.6275 102.752 39.3991 103.414 39.0344Z" fill="white"/>
<path d="M111.322 28.8188L117.41 26.1184L117.877 27.1715L111.789 29.8719L111.322 28.8188ZM114.088 34.7003L112.871 35.2404L107.762 23.7226L115.66 20.2194L116.127 21.2724L109.447 24.2356L114.088 34.7003Z" fill="white"/>
<path d="M127.046 29.2744L123.196 18.493L119.026 19.982L118.639 18.897L128.234 15.4713L128.621 16.5562L124.451 18.0451L128.3 28.8265L127.046 29.2744Z" fill="white"/>
<path d="M142.962 19.7298L142.707 18.6434L147.298 17.5648L147.553 18.6512L142.962 19.7298Z" fill="white"/>
<path d="M164.703 20.0079C163.774 20.1273 162.863 20.0933 161.967 19.906C161.082 19.7052 160.377 19.3966 159.852 18.9803L160.239 17.8961C160.734 18.2679 161.37 18.5551 162.146 18.7578C162.933 18.947 163.737 18.9888 164.558 18.8832C165.344 18.7822 165.968 18.6051 166.432 18.3519C166.905 18.0853 167.234 17.7708 167.417 17.4085C167.612 17.0446 167.684 16.6603 167.632 16.2557C167.569 15.7677 167.376 15.3933 167.052 15.1325C166.74 14.8701 166.347 14.6847 165.873 14.5762C165.398 14.4559 164.878 14.3654 164.314 14.3049C163.75 14.2444 163.185 14.1779 162.619 14.1055C162.051 14.0212 161.52 13.8839 161.023 13.6937C160.539 13.5019 160.128 13.222 159.79 12.8541C159.463 12.4727 159.256 11.9488 159.171 11.2823C159.091 10.6634 159.179 10.0774 159.434 9.52427C159.7 8.95773 160.153 8.47611 160.791 8.07941C161.428 7.67081 162.276 7.3984 163.336 7.26218C164.038 7.17187 164.747 7.1835 165.464 7.29706C166.178 7.39871 166.808 7.58998 167.352 7.87085L167.041 8.98157C166.46 8.69339 165.855 8.50502 165.226 8.41645C164.61 8.32635 164.022 8.31727 163.463 8.38921C162.713 8.48564 162.107 8.6664 161.645 8.93149C161.183 9.19657 160.855 9.517 160.661 9.89277C160.478 10.2551 160.414 10.6505 160.469 11.079C160.532 11.567 160.719 11.9421 161.031 12.2045C161.355 12.4653 161.754 12.6499 162.228 12.7584C162.713 12.8653 163.238 12.9491 163.803 13.0096C164.367 13.0701 164.927 13.1433 165.482 13.2291C166.05 13.3134 166.576 13.4515 167.06 13.6433C167.555 13.8216 167.965 14.0955 168.291 14.465C168.629 14.8329 168.84 15.3442 168.924 15.9988C169.002 16.6058 168.908 17.1926 168.642 17.7591C168.375 18.3137 167.916 18.7961 167.267 19.2063C166.629 19.603 165.774 19.8702 164.703 20.0079Z" fill="white"/>
<path d="M178.85 18.6033C177.904 18.6557 177.014 18.5487 176.182 18.2822C175.362 18.0031 174.636 17.5926 174.005 17.0506C173.385 16.496 172.887 15.8446 172.509 15.0963C172.142 14.3354 171.933 13.4937 171.882 12.5711C171.831 11.6485 171.946 10.7948 172.227 10.0101C172.52 9.21274 172.944 8.51025 173.499 7.90264C174.065 7.28239 174.741 6.79429 175.527 6.43834C176.312 6.07041 177.184 5.85993 178.142 5.80689C179.089 5.75451 179.972 5.86786 180.793 6.14694C181.613 6.41404 182.332 6.81891 182.951 7.36154C183.582 7.90351 184.081 8.55495 184.448 9.31586C184.826 10.0761 185.041 10.9175 185.092 11.8401C185.143 12.7627 185.022 13.6227 184.73 14.42C184.45 15.2168 184.026 15.9192 183.459 16.5275C182.903 17.1351 182.233 17.6229 181.448 17.9908C180.663 18.3468 179.797 18.5509 178.85 18.6033ZM178.785 17.4171C179.539 17.3754 180.227 17.2111 180.849 16.9243C181.481 16.6249 182.018 16.2287 182.459 15.7355C182.912 15.2297 183.253 14.658 183.482 14.0204C183.711 13.3708 183.804 12.6685 183.762 11.9137C183.72 11.1589 183.55 10.4772 183.252 9.86874C182.954 9.2483 182.552 8.7177 182.047 8.27693C181.553 7.82352 180.975 7.48891 180.314 7.2731C179.665 7.04464 178.963 6.9513 178.208 6.99307C177.453 7.03484 176.759 7.20543 176.127 7.50483C175.494 7.79225 174.951 8.18885 174.498 8.69464C174.057 9.18778 173.716 9.75949 173.475 10.4098C173.246 11.0474 173.153 11.7436 173.194 12.4985C173.235 13.2413 173.405 13.923 173.704 14.5434C174.015 15.1632 174.417 15.6998 174.911 16.1532C175.416 16.594 175.999 16.9283 176.661 17.1561C177.322 17.3719 178.03 17.4589 178.785 17.4171Z" fill="white"/>
<path d="M192.104 11.5673L198.763 11.7068L198.739 12.8585L192.08 12.7191L192.104 11.5673ZM192.112 18.0669L190.781 18.039L191.044 5.44179L199.683 5.62271L199.658 6.77446L192.352 6.62143L192.112 18.0669Z" fill="white"/>
<path d="M206.837 18.6864L207.857 7.28386L203.446 6.88956L203.549 5.74214L213.696 6.64934L213.594 7.79676L209.183 7.40247L208.164 18.805L206.837 18.6864Z" fill="white"/>
<path d="M223.212 16.3203L223.427 15.2253L228.054 16.1351L227.839 17.2301L223.212 16.3203Z" fill="white"/>
<path d="M244.424 26.0356C243.534 25.7464 242.724 25.3257 241.995 24.7735C241.281 24.2135 240.776 23.633 240.479 23.0319L241.293 22.2173C241.581 22.7654 242.033 23.297 242.648 23.8122C243.278 24.3196 243.987 24.7013 244.774 24.9571C245.528 25.2017 246.168 25.3088 246.695 25.2782C247.238 25.2399 247.669 25.0961 247.99 24.847C248.322 24.6016 248.551 24.2849 248.677 23.8968C248.829 23.4289 248.814 23.0078 248.633 22.6335C248.463 22.2629 248.187 21.9273 247.806 21.6266C247.428 21.3145 246.996 21.0105 246.512 20.7144C246.028 20.4183 245.546 20.1165 245.065 19.809C244.588 19.4901 244.166 19.1385 243.799 18.7543C243.443 18.3737 243.191 17.945 243.043 17.4679C242.911 16.9832 242.948 16.4213 243.156 15.7822C243.349 15.1887 243.679 14.6966 244.146 14.306C244.629 13.9076 245.244 13.6657 245.991 13.5803C246.741 13.4834 247.625 13.6 248.64 13.9299C249.314 14.1487 249.95 14.4626 250.549 14.8716C251.151 15.2692 251.639 15.7114 252.01 16.1981L251.254 17.0691C250.852 16.5599 250.386 16.1308 249.856 15.782C249.337 15.4368 248.809 15.1771 248.273 15.0029C247.554 14.7693 246.929 14.6736 246.398 14.7156C245.867 14.7576 245.434 14.907 245.098 15.1639C244.777 15.413 244.55 15.743 244.417 16.1539C244.265 16.6218 244.273 17.0411 244.443 17.4117C244.625 17.786 244.906 18.1234 245.288 18.4241C245.681 18.7285 246.12 19.0287 246.604 19.3248C247.088 19.6208 247.563 19.9265 248.028 20.2417C248.505 20.5606 248.922 20.9103 249.277 21.2908C249.648 21.6637 249.902 22.0868 250.038 22.5601C250.186 23.0371 250.158 23.5895 249.954 24.2172C249.765 24.7992 249.429 25.2894 248.947 25.6878C248.468 26.0748 247.847 26.3148 247.085 26.4079C246.338 26.4934 245.451 26.3692 244.424 26.0356Z" fill="white"/>
<path d="M257.433 30.7883C256.56 30.4167 255.81 29.9275 255.182 29.3206C254.569 28.7074 254.1 28.0183 253.773 27.2532C253.463 26.4818 253.304 25.677 253.295 24.8387C253.303 23.9942 253.488 23.1468 253.85 22.2968C254.212 21.4467 254.693 20.7319 255.292 20.1523C255.907 19.5664 256.598 19.1237 257.364 18.8243C258.147 18.5185 258.969 18.3796 259.831 18.4077C260.698 18.4248 261.572 18.6214 262.456 18.9977C263.328 19.3692 264.07 19.8616 264.683 20.4748C265.3 21.077 265.767 21.7582 266.082 22.5186C266.408 23.2837 266.567 24.0885 266.56 24.9331C266.563 25.7824 266.384 26.6321 266.022 27.4821C265.659 28.3322 265.171 29.0502 264.556 29.6361C263.952 30.2267 263.262 30.6694 262.484 30.9641C261.717 31.2636 260.9 31.4048 260.034 31.3877C259.172 31.3597 258.305 31.1598 257.433 30.7883ZM257.898 29.6953C258.594 29.9916 259.283 30.1485 259.967 30.1659C260.667 30.177 261.324 30.059 261.938 29.8119C262.567 29.5584 263.126 29.1964 263.613 28.7258C264.106 28.2442 264.5 27.6556 264.796 26.9601C265.092 26.2646 265.241 25.578 265.243 24.9005C265.25 24.2119 265.124 23.5583 264.865 22.9396C264.623 22.3146 264.253 21.7591 263.756 21.2733C263.274 20.7812 262.686 20.3869 261.99 20.0906C261.295 19.7943 260.597 19.6406 259.897 19.6295C259.202 19.6074 258.54 19.723 257.91 19.9765C257.296 20.2236 256.738 20.5857 256.235 21.0626C255.747 21.5332 255.355 22.1163 255.059 22.8118C254.767 23.4962 254.618 24.1828 254.612 24.8714C254.617 25.5646 254.74 26.2238 254.983 26.8488C255.241 27.4675 255.616 28.0253 256.109 28.5221C256.606 29.008 257.203 29.399 257.898 29.6953Z" fill="white"/>
<path d="M270.948 29.7026L276.81 32.8633L276.264 33.8773L270.401 30.7167L270.948 29.7026ZM267.991 35.4906L266.819 34.8585L272.798 23.7678L280.403 27.868L279.857 28.8821L273.424 25.4139L267.991 35.4906Z" fill="white"/>
<path d="M280.404 42.5666L286.634 32.9626L282.919 30.5527L283.546 29.5862L292.093 35.131L291.466 36.0974L287.752 33.6875L281.521 43.2916L280.404 42.5666Z" fill="white"/>
<path d="M296.769 48.8073L297.483 47.9497L301.107 50.9672L300.393 51.8249L296.769 48.8073Z" fill="white"/>
<path d="M309.992 66.7944C309.347 66.1163 308.835 65.361 308.456 64.5283C308.095 63.696 307.927 62.9449 307.952 62.275L309.055 61.9458C309.048 62.5652 309.193 63.2479 309.488 63.9936C309.801 64.7398 310.242 65.4128 310.813 66.0126C311.359 66.5863 311.871 66.9852 312.35 67.2093C312.845 67.4337 313.293 67.5127 313.693 67.4463C314.102 67.3885 314.454 67.219 314.75 66.9377C315.106 66.5986 315.294 66.2212 315.313 65.8058C315.34 65.3991 315.257 64.9726 315.064 64.5265C314.88 64.0721 314.646 63.5994 314.361 63.1085C314.076 62.6177 313.796 62.1227 313.519 61.6235C313.252 61.1161 313.048 60.606 312.908 60.0933C312.776 59.5892 312.759 59.0923 312.856 58.6024C312.97 58.1129 313.27 57.6365 313.757 57.1733C314.209 56.7431 314.733 56.4675 315.331 56.3465C315.945 56.2259 316.601 56.3058 317.298 56.5862C318.004 56.8584 318.726 57.3813 319.462 58.1549C319.95 58.6678 320.36 59.2467 320.692 59.8915C321.033 60.528 321.251 61.1488 321.346 61.7538L320.267 62.1599C320.155 61.5206 319.949 60.9213 319.649 60.3622C319.357 59.8117 319.017 59.3322 318.628 58.9236C318.107 58.376 317.603 57.9943 317.116 57.7785C316.629 57.5627 316.177 57.4879 315.759 57.5539C315.358 57.6204 315.002 57.8025 314.689 58.1003C314.332 58.4395 314.141 58.8125 314.114 59.2192C314.095 59.6346 314.182 60.0654 314.374 60.5116C314.575 60.9664 314.818 61.4393 315.103 61.9301C315.388 62.421 315.66 62.9158 315.919 63.4145C316.187 63.9219 316.387 64.4277 316.518 64.9317C316.667 65.4362 316.689 65.929 316.584 66.4102C316.487 66.9001 316.199 67.3726 315.721 67.8276C315.278 68.2494 314.749 68.5207 314.135 68.6413C313.529 68.7536 312.869 68.6693 312.155 68.3885C311.457 68.1081 310.736 67.5767 309.992 66.7944Z" fill="white"/>
<path d="M319.757 77.7997C319.163 77.0607 318.733 76.2753 318.465 75.4438C318.214 74.6141 318.125 73.785 318.198 72.9565C318.288 72.1298 318.528 71.345 318.916 70.6021C319.321 69.861 319.884 69.2011 320.604 68.6224C321.324 68.0437 322.085 67.6402 322.887 67.4118C323.706 67.1852 324.524 67.1208 325.341 67.2185C326.175 67.318 326.965 67.5834 327.712 68.0148C328.468 68.4387 329.147 69.0248 329.748 69.7732C330.342 70.5123 330.764 71.2967 331.015 72.1264C331.276 72.9486 331.365 73.7692 331.285 74.5884C331.211 75.4169 330.972 76.2017 330.567 76.9427C330.169 77.6932 329.61 78.3578 328.89 78.9365C328.17 79.5151 327.4 79.9178 326.582 80.1443C325.771 80.3802 324.953 80.4447 324.128 80.3377C323.311 80.24 322.524 79.9792 321.768 79.5554C321.021 79.124 320.351 78.5388 319.757 77.7997ZM320.683 77.0557C321.157 77.645 321.691 78.1087 322.286 78.4467C322.897 78.7866 323.532 78.9924 324.19 79.0641C324.865 79.1377 325.528 79.082 326.18 78.897C326.841 78.7045 327.466 78.3715 328.056 77.898C328.645 77.4246 329.1 76.8895 329.421 76.2929C329.752 75.6888 329.949 75.0531 330.014 74.3857C330.095 73.7203 330.03 73.056 329.821 72.393C329.629 71.7319 329.296 71.1066 328.822 70.5172C328.349 69.9279 327.806 69.4633 327.194 69.1234C326.592 68.7761 325.954 68.5656 325.279 68.492C324.621 68.4203 323.958 68.476 323.289 68.6591C322.637 68.8441 322.016 69.1733 321.427 69.6468C320.847 70.1128 320.392 70.6478 320.061 71.252C319.738 71.8654 319.536 72.5049 319.455 73.1704C319.391 73.8377 319.459 74.5066 319.659 75.1771C319.868 75.8401 320.21 76.4663 320.683 77.0557Z" fill="white"/>
<path d="M332.707 83.9292L336.432 89.45L335.477 90.0943L331.752 84.5735L332.707 83.9292ZM327.401 87.683L326.656 86.5788L337.101 79.5314L341.933 86.6935L340.978 87.3379L336.891 81.2799L327.401 87.683Z" fill="white"/>
<path d="M334.739 99.0487L344.633 93.2898L342.405 89.4629L343.401 88.8834L348.526 97.6885L347.53 98.268L345.303 94.441L335.409 100.2L334.739 99.0487Z" fill="white"/>
<path d="M346.723 112.222L347.74 111.762L349.684 116.058L348.668 116.518L346.723 112.222Z" fill="white"/>
<path d="M350.874 134.172C350.578 133.284 350.434 132.383 350.445 131.469C350.471 130.562 350.637 129.81 350.944 129.214L352.083 129.384C351.814 129.942 351.655 130.621 351.606 131.422C351.573 132.23 351.687 133.027 351.95 133.812C352.201 134.564 352.495 135.142 352.833 135.548C353.187 135.961 353.559 136.223 353.95 136.332C354.345 136.454 354.735 136.449 355.122 136.32C355.589 136.164 355.919 135.902 356.112 135.534C356.309 135.177 356.415 134.756 356.43 134.27C356.456 133.78 356.444 133.253 356.394 132.687C356.345 132.122 356.3 131.555 356.262 130.986C356.235 130.413 356.267 129.864 356.357 129.34C356.452 128.828 356.647 128.371 356.943 127.968C357.253 127.573 357.727 127.269 358.365 127.056C358.957 126.858 359.549 126.831 360.141 126.975C360.748 127.126 361.308 127.477 361.821 128.027C362.345 128.573 362.776 129.352 363.115 130.365C363.339 131.037 363.465 131.735 363.492 132.46C363.531 133.18 363.465 133.835 363.295 134.423L362.145 134.333C362.315 133.707 362.383 133.077 362.348 132.443C362.317 131.821 362.212 131.242 362.034 130.708C361.794 129.991 361.499 129.431 361.15 129.029C360.8 128.627 360.423 128.368 360.017 128.25C359.626 128.141 359.225 128.154 358.816 128.291C358.349 128.447 358.017 128.703 357.82 129.06C357.627 129.429 357.523 129.856 357.508 130.341C357.497 130.838 357.516 131.37 357.566 131.935C357.616 132.5 357.653 133.064 357.676 133.626C357.703 134.199 357.669 134.741 357.575 135.254C357.496 135.774 357.306 136.229 357.007 136.62C356.711 137.023 356.25 137.328 355.624 137.538C355.044 137.732 354.45 137.753 353.843 137.602C353.247 137.447 352.685 137.091 352.157 136.533C351.644 135.983 351.217 135.196 350.874 134.172Z" fill="white"/>
<path d="M355.085 148.374C354.858 147.454 354.798 146.56 354.906 145.693C355.028 144.835 355.297 144.046 355.712 143.325C356.142 142.614 356.69 142.003 357.355 141.493C358.035 140.991 358.823 140.63 359.72 140.409C360.618 140.188 361.478 140.142 362.301 140.273C363.139 140.413 363.908 140.699 364.608 141.132C365.322 141.573 365.927 142.147 366.423 142.853C366.93 143.556 367.298 144.374 367.528 145.306C367.755 146.226 367.807 147.116 367.685 147.974C367.575 148.829 367.31 149.611 366.892 150.32C366.476 151.04 365.929 151.651 365.249 152.153C364.572 152.666 363.785 153.033 362.888 153.254C361.991 153.475 361.124 153.516 360.286 153.377C359.451 153.249 358.682 152.963 357.979 152.518C357.279 152.085 356.675 151.517 356.168 150.814C355.673 150.108 355.312 149.295 355.085 148.374ZM356.238 148.09C356.419 148.824 356.708 149.47 357.105 150.027C357.517 150.593 358.006 151.047 358.572 151.389C359.153 151.74 359.778 151.969 360.447 152.076C361.128 152.18 361.835 152.142 362.569 151.961C363.303 151.78 363.941 151.486 364.484 151.081C365.038 150.672 365.485 150.179 365.825 149.601C366.179 149.031 366.4 148.402 366.49 147.712C366.594 147.032 366.556 146.324 366.375 145.59C366.194 144.856 365.897 144.206 365.486 143.64C365.086 143.072 364.596 142.612 364.015 142.261C363.448 141.918 362.823 141.689 362.14 141.574C361.471 141.467 360.769 141.504 360.035 141.685C359.313 141.863 358.674 142.156 358.12 142.565C357.569 142.985 357.116 143.48 356.762 144.049C356.422 144.627 356.202 145.262 356.101 145.955C356.011 146.644 356.057 147.356 356.238 148.09Z" fill="white"/>
<path d="M364.106 158.761L365.136 165.341L363.998 165.519L362.968 158.939L364.106 158.761ZM357.709 159.908L357.503 158.592L369.951 156.644L371.287 165.18L370.149 165.358L369.019 158.138L357.709 159.908Z" fill="white"/>
<path d="M359.523 173.935L370.943 173.134L370.634 168.717L371.783 168.636L372.496 178.799L371.346 178.88L371.037 174.463L359.617 175.263L359.523 173.935Z" fill="white"/>
<path d="M364.273 191.381L365.389 191.387L365.362 196.103L364.246 196.097L364.273 191.381Z" fill="white"/>
<path d="M359.698 213.901C359.704 212.965 359.86 212.066 360.166 211.204C360.484 210.355 360.884 209.697 361.367 209.233L362.39 209.761C361.955 210.203 361.585 210.794 361.28 211.536C360.987 212.29 360.837 213.081 360.832 213.909C360.826 214.701 360.918 215.344 361.106 215.837C361.307 216.342 361.575 216.71 361.909 216.94C362.243 217.183 362.615 217.305 363.023 217.308C363.515 217.311 363.911 217.17 364.213 216.884C364.515 216.61 364.752 216.246 364.923 215.791C365.106 215.336 365.265 214.833 365.401 214.282C365.537 213.731 365.679 213.18 365.826 212.629C365.986 212.078 366.194 211.569 366.449 211.103C366.704 210.649 367.036 210.279 367.446 209.994C367.868 209.721 368.415 209.586 369.087 209.591C369.711 209.595 370.28 209.761 370.794 210.089C371.319 210.428 371.736 210.941 372.043 211.627C372.363 212.313 372.519 213.19 372.511 214.258C372.507 214.966 372.4 215.668 372.191 216.362C371.994 217.057 371.72 217.655 371.369 218.157L370.31 217.7C370.674 217.162 370.942 216.588 371.114 215.977C371.286 215.378 371.374 214.797 371.378 214.233C371.383 213.477 371.285 212.852 371.084 212.359C370.884 211.865 370.61 211.497 370.264 211.255C369.929 211.025 369.546 210.908 369.114 210.905C368.622 210.902 368.225 211.037 367.923 211.311C367.621 211.597 367.385 211.967 367.214 212.422C367.043 212.889 366.889 213.398 366.753 213.949C366.618 214.5 366.47 215.045 366.31 215.584C366.151 216.135 365.943 216.638 365.688 217.092C365.445 217.558 365.118 217.928 364.708 218.201C364.299 218.487 363.764 218.627 363.104 218.623C362.492 218.618 361.923 218.446 361.397 218.107C360.883 217.767 360.467 217.249 360.148 216.55C359.84 215.864 359.69 214.981 359.698 213.901Z" fill="white"/>
<path d="M359.603 229.343C359.608 228.395 359.768 227.514 360.084 226.7C360.412 225.897 360.866 225.198 361.445 224.6C362.035 224.015 362.716 223.557 363.485 223.224C364.267 222.904 365.12 222.746 366.044 222.751C366.968 222.755 367.813 222.922 368.579 223.249C369.358 223.589 370.033 224.054 370.606 224.645C371.191 225.248 371.638 225.952 371.946 226.758C372.266 227.563 372.424 228.446 372.419 229.406C372.415 230.354 372.248 231.229 371.92 232.032C371.604 232.834 371.157 233.528 370.578 234.113C369.999 234.71 369.319 235.169 368.537 235.489C367.756 235.821 366.903 235.985 365.979 235.981C365.055 235.976 364.204 235.804 363.425 235.464C362.647 235.136 361.971 234.671 361.398 234.068C360.825 233.477 360.379 232.779 360.058 231.974C359.75 231.168 359.599 230.291 359.603 229.343ZM360.791 229.349C360.788 230.105 360.91 230.802 361.159 231.439C361.42 232.088 361.783 232.648 362.249 233.118C362.727 233.601 363.277 233.975 363.899 234.243C364.534 234.51 365.229 234.645 365.985 234.649C366.741 234.652 367.432 234.524 368.057 234.263C368.695 234.002 369.248 233.633 369.719 233.155C370.201 232.689 370.57 232.133 370.825 231.486C371.092 230.852 371.227 230.156 371.231 229.4C371.235 228.644 371.106 227.942 370.845 227.292C370.597 226.643 370.233 226.077 369.756 225.595C369.29 225.125 368.74 224.75 368.105 224.471C367.483 224.204 366.793 224.069 366.037 224.065C365.293 224.061 364.603 224.19 363.965 224.451C363.328 224.724 362.768 225.093 362.286 225.559C361.815 226.036 361.447 226.598 361.18 227.245C360.924 227.892 360.795 228.593 360.791 229.349Z" fill="white"/>
<path d="M366.162 241.588L366.157 248.248L365.005 248.247L365.01 241.587L366.162 241.588ZM359.664 241.727L359.665 240.395L372.265 240.405L372.258 249.045L371.106 249.044L371.112 241.736L359.664 241.727Z" fill="white"/>
<path d="M359.679 256.162L371.127 256.097L371.102 251.669L372.254 251.663L372.311 261.85L371.16 261.857L371.134 257.429L359.687 257.494L359.679 256.162Z" fill="white"/>
<path d="M364.288 273.614H365.404V278.33H364.288V273.614Z" fill="white"/>
<path d="M372.568 302.007V303.321H359.968V302.007H372.568ZM359.968 294.123V292.791H372.568V294.123H359.968ZM365.782 302.133V293.979H366.952V302.133H365.782Z" fill="white"/>
<path d="M359.968 307.298L372.568 313.058V314.372L359.968 320.132V318.728L371.794 313.436V313.976L359.968 308.684V307.298ZM363.334 309.566L364.414 309.962V317.288L363.334 317.684V309.566Z" fill="white"/>
<path d="M359.968 324.335H372.568V329.051C372.568 330.119 372.394 331.037 372.046 331.805C371.71 332.573 371.218 333.161 370.57 333.569C369.934 333.989 369.16 334.199 368.248 334.199C367.36 334.199 366.592 333.989 365.944 333.569C365.308 333.161 364.816 332.573 364.468 331.805C364.132 331.037 363.964 330.119 363.964 329.051V325.073L364.576 325.667H359.968V324.335ZM359.968 332.939L364.54 329.699V331.139L359.968 334.397V332.939ZM364.468 325.667L365.098 325.073V329.015C365.098 330.275 365.374 331.229 365.926 331.877C366.478 332.537 367.252 332.867 368.248 332.867C369.256 332.867 370.036 332.537 370.588 331.877C371.14 331.229 371.416 330.275 371.416 329.015V325.073L372.046 325.667H364.468Z" fill="white"/>
<path d="M359.968 339.199H372.568V344.329C372.568 345.673 372.298 346.849 371.758 347.857C371.23 348.877 370.492 349.669 369.544 350.233C368.596 350.797 367.504 351.079 366.268 351.079C365.032 351.079 363.94 350.797 362.992 350.233C362.044 349.669 361.3 348.877 360.76 347.857C360.232 346.849 359.968 345.673 359.968 344.329V339.199ZM361.12 340.531V344.257C361.12 345.373 361.336 346.339 361.768 347.155C362.212 347.983 362.818 348.625 363.586 349.081C364.366 349.537 365.26 349.765 366.268 349.765C367.288 349.765 368.182 349.537 368.95 349.081C369.718 348.625 370.318 347.983 370.75 347.155C371.194 346.339 371.416 345.373 371.416 344.257V340.531H361.12Z" fill="white"/>
<path d="M364.288 363.293H365.404V368.009H364.288V363.293Z" fill="white"/>
<path d="M370.19 392.742L369.96 394.036L357.554 391.837L357.783 390.544L370.19 392.742ZM359.158 382.781L359.391 381.469L371.797 383.667L371.565 384.979L359.158 382.781ZM363.486 391.682L364.908 383.653L366.06 383.857L364.638 391.886L363.486 391.682Z" fill="white"/>
<path d="M356.945 395.035L367.465 404.051L367.102 405.314L353.401 407.37L353.789 406.021L366.617 404.2L366.467 404.719L356.563 396.367L356.945 395.035ZM359.554 398.145L360.483 398.823L358.46 405.865L357.312 405.947L359.554 398.145Z" fill="white"/>
<path d="M352.311 410.578L364.093 415.042L362.422 419.452C362.044 420.451 361.556 421.248 360.958 421.843C360.372 422.442 359.704 422.817 358.953 422.969C358.21 423.137 357.411 423.059 356.559 422.736C355.728 422.421 355.084 421.953 354.627 421.33C354.177 420.723 353.925 419.999 353.872 419.158C353.83 418.321 353.998 417.403 354.377 416.404L355.786 412.684L356.148 413.456L351.839 411.824L352.311 410.578ZM349.262 418.624L354.686 417.214L354.175 418.56L348.746 419.987L349.262 418.624ZM356.047 413.418L356.847 413.086L355.45 416.772C355.003 417.95 354.923 418.94 355.21 419.742C355.492 420.554 356.099 421.137 357.031 421.49C357.973 421.847 358.819 421.815 359.57 421.394C360.315 420.983 360.911 420.189 361.358 419.011L362.755 415.324L363.133 416.103L356.047 413.418Z" fill="white"/>
<path d="M347.016 424.156L358.394 429.568L356.191 434.201C355.614 435.415 354.865 436.361 353.944 437.039C353.03 437.733 352.023 438.132 350.925 438.234C349.826 438.336 348.719 438.122 347.603 437.591C346.487 437.06 345.622 436.336 345.008 435.42C344.394 434.503 344.062 433.468 344.012 432.315C343.969 431.178 344.235 430.003 344.812 428.789L347.016 424.156ZM347.484 425.854L345.884 429.219C345.404 430.227 345.185 431.192 345.224 432.114C345.27 433.053 345.541 433.893 346.039 434.634C346.547 435.381 347.257 435.971 348.167 436.404C349.088 436.842 349.993 437.02 350.883 436.938C351.772 436.856 352.59 436.534 353.336 435.972C354.087 435.426 354.702 434.649 355.182 433.641L356.782 430.276L347.484 425.854Z" fill="white"/>
<path d="M340.085 447.095L341.037 447.677L338.577 451.7L337.625 451.118L340.085 447.095Z" fill="white"/>
<path d="M330.848 475.277L330.051 476.322L320.034 468.678L320.831 467.633L330.848 475.277ZM325.614 461.366L326.422 460.307L336.439 467.951L335.631 469.01L325.614 461.366ZM325.377 471.261L330.324 464.779L331.254 465.488L326.307 471.971L325.377 471.261Z" fill="white"/>
<path d="M317.815 471.523L323.332 484.232L322.453 485.209L309.233 481.066L310.172 480.022L322.504 483.995L322.142 484.397L316.889 472.554L317.815 471.523ZM318.801 475.461L319.34 476.477L314.44 481.924L313.373 481.496L318.801 475.461Z" fill="white"/>
<path d="M306.715 483.631L315.389 492.769L311.969 496.016C311.194 496.751 310.409 497.257 309.612 497.533C308.824 497.818 308.059 497.866 307.317 497.677C306.574 497.505 305.889 497.088 305.261 496.427C304.65 495.783 304.273 495.081 304.132 494.322C303.99 493.58 304.078 492.818 304.395 492.037C304.721 491.265 305.271 490.511 306.045 489.776L308.931 487.037L308.921 487.89L305.749 484.548L306.715 483.631ZM300.474 489.554L305.972 490.64L304.928 491.631L299.417 490.558L300.474 489.554ZM308.847 487.811L309.711 487.859L306.852 490.573C305.938 491.441 305.436 492.298 305.347 493.144C305.248 493.999 305.541 494.788 306.227 495.51C306.921 496.241 307.697 496.579 308.556 496.525C309.406 496.48 310.288 496.023 311.202 495.156L314.061 492.442L314.064 493.308L308.847 487.811Z" fill="white"/>
<path d="M296.207 493.413L304.045 503.279L300.028 506.47C298.975 507.306 297.887 507.826 296.762 508.03C295.634 508.251 294.555 508.166 293.524 507.774C292.493 507.383 291.593 506.703 290.824 505.735C290.055 504.768 289.597 503.737 289.449 502.644C289.301 501.551 289.458 500.476 289.921 499.418C290.382 498.378 291.138 497.44 292.191 496.604L296.207 493.413ZM295.881 495.143L292.963 497.461C292.09 498.155 291.468 498.925 291.097 499.771C290.725 500.634 290.599 501.508 290.72 502.393C290.848 503.287 291.226 504.129 291.853 504.918C292.487 505.717 293.222 506.275 294.057 506.593C294.891 506.91 295.767 506.981 296.684 506.804C297.599 506.644 298.494 506.217 299.368 505.523L302.285 503.205L295.881 495.143Z" fill="white"/>
<path d="M279.822 510.806L280.396 511.763L276.351 514.188L275.777 513.23L279.822 510.806Z" fill="white"/>
<path d="M258.151 531.213L256.943 531.731L251.97 520.154L253.178 519.636L258.151 531.213ZM260.422 516.524L261.645 515.998L266.619 527.575L265.395 528.101L260.422 516.524ZM255.357 525.028L262.849 521.809L263.31 522.884L255.818 526.103L255.357 525.028Z" fill="white"/>
<path d="M248.852 521.435L247.079 535.175L245.824 535.564L236.593 525.233L237.934 524.818L246.489 534.548L245.973 534.708L247.529 521.845L248.852 521.435ZM247.682 525.322L247.623 526.47L240.626 528.638L239.928 527.724L247.682 525.322Z" fill="white"/>
<path d="M233.237 526.059L235.755 538.405L231.134 539.348C230.088 539.561 229.153 539.574 228.331 539.387C227.512 539.211 226.837 538.846 226.308 538.293C225.769 537.754 225.409 537.037 225.226 536.144C225.049 535.274 225.101 534.479 225.383 533.76C225.656 533.056 226.134 532.456 226.817 531.962C227.502 531.479 228.368 531.131 229.414 530.917L233.312 530.122L232.852 530.841L231.931 526.326L233.237 526.059ZM224.806 527.779L228.895 531.611L227.484 531.899L223.378 528.07L224.806 527.779ZM232.831 530.735L233.539 531.233L229.676 532.021C228.442 532.273 227.562 532.734 227.038 533.405C226.501 534.077 226.333 534.902 226.532 535.878C226.733 536.865 227.212 537.564 227.969 537.973C228.715 538.384 229.704 538.464 230.939 538.212L234.802 537.424L234.345 538.16L232.831 530.735Z" fill="white"/>
<path d="M219.233 528.727L220.497 541.263L215.393 541.778C214.056 541.913 212.859 541.763 211.802 541.327C210.734 540.904 209.872 540.249 209.216 539.362C208.559 538.476 208.169 537.417 208.045 536.188C207.921 534.958 208.092 533.843 208.558 532.843C209.024 531.843 209.737 531.024 210.698 530.384C211.648 529.758 212.791 529.377 214.129 529.242L219.233 528.727ZM218.023 530.007L214.316 530.381C213.206 530.493 212.266 530.805 211.498 531.317C210.718 531.841 210.14 532.509 209.764 533.319C209.388 534.14 209.251 535.053 209.352 536.056C209.455 537.071 209.771 537.937 210.302 538.656C210.833 539.374 211.532 539.906 212.399 540.253C213.256 540.613 214.239 540.737 215.349 540.625L219.056 540.251L218.023 530.007Z" fill="white"/>
<path d="M195.34 534.37L195.31 535.486L190.595 535.358L190.626 534.242L195.34 534.37Z" fill="white"/>
<path d="M166.172 540.318L164.87 540.143L166.553 527.656L167.855 527.831L166.172 540.318ZM175.668 528.884L176.988 529.062L175.306 541.549L173.986 541.371L175.668 528.884ZM166.953 533.576L175.034 534.665L174.878 535.825L166.797 534.736L166.953 533.576Z" fill="white"/>
<path d="M163.1 527.146L154.784 538.227L153.5 537.947L150.561 524.408L151.933 524.707L154.58 537.39L154.052 537.275L161.745 526.851L163.1 527.146ZM160.166 529.951L159.548 530.922L152.391 529.358L152.235 528.219L160.166 529.951Z" fill="white"/>
<path d="M147.142 523.466L143.456 535.515L138.947 534.135C137.925 533.823 137.098 533.388 136.466 532.831C135.83 532.285 135.411 531.642 135.211 530.903C134.995 530.172 135.021 529.371 135.287 528.499C135.547 527.649 135.973 526.976 136.564 526.48C137.14 525.991 137.846 525.692 138.682 525.584C139.515 525.488 140.442 525.595 141.463 525.908L145.267 527.071L144.52 527.483L145.868 523.076L147.142 523.466ZM138.914 520.949L140.675 526.269L139.298 525.848L137.52 520.523L138.914 520.949ZM144.552 527.38L144.936 528.156L141.166 527.003C139.961 526.634 138.968 526.619 138.187 526.957C137.394 527.292 136.852 527.936 136.561 528.888C136.266 529.852 136.354 530.695 136.823 531.415C137.281 532.133 138.113 532.676 139.318 533.044L143.087 534.198L142.335 534.626L144.552 527.38Z" fill="white"/>
<path d="M133.512 519.119L128.745 530.783L123.997 528.842C122.752 528.334 121.766 527.639 121.037 526.758C120.293 525.883 119.839 524.9 119.675 523.81C119.512 522.719 119.664 521.601 120.131 520.457C120.599 519.313 121.273 518.409 122.154 517.744C123.035 517.08 124.049 516.691 125.198 516.577C126.331 516.47 127.519 516.67 128.763 517.179L133.512 519.119ZM131.843 519.682L128.394 518.272C127.361 517.85 126.385 517.685 125.466 517.776C124.532 517.874 123.708 518.192 122.996 518.73C122.278 519.28 121.729 520.021 121.348 520.954C120.962 521.898 120.835 522.812 120.966 523.695C121.098 524.579 121.465 525.377 122.068 526.09C122.656 526.81 123.466 527.381 124.499 527.803L127.948 529.213L131.843 519.682Z" fill="white"/>
<path d="M110.421 513.372L109.873 514.344L105.766 512.024L106.315 511.052L110.421 513.372Z" fill="white"/>
<path d="M81.9785 504.737L80.9231 503.955L88.4291 493.834L89.4845 494.617L81.9785 504.737ZM95.8169 499.314L96.8868 500.107L89.3807 510.227L88.3109 509.434L95.8169 499.314ZM85.9198 499.212L92.4691 504.069L91.7721 505.009L85.2228 500.152L85.9198 499.212Z" fill="white"/>
<path d="M85.629 491.696L72.9396 497.256L71.9596 496.381L76.0573 483.146L77.1044 484.082L73.1733 496.427L72.7705 496.067L84.5954 490.772L85.629 491.696ZM81.6953 492.695L80.6805 493.237L75.2167 488.357L75.6408 487.287L81.6953 492.695Z" fill="white"/>
<path d="M73.4753 480.632L64.3499 489.321L61.098 485.905C60.3615 485.132 59.8545 484.347 59.577 483.551C59.2908 482.763 59.2416 481.998 59.4296 481.255C59.6006 480.513 60.0164 479.827 60.6769 479.198C61.32 478.586 62.021 478.208 62.7799 478.065C63.5219 477.922 64.2836 478.009 65.0653 478.325C65.8382 478.65 66.5929 479.199 67.3293 479.972L70.0723 482.853L69.2195 482.845L72.5568 479.668L73.4753 480.632ZM67.5424 474.401L66.4653 479.9L65.4724 478.857L66.537 473.345L67.5424 474.401ZM69.2977 482.77L69.2511 483.635L66.5328 480.78C65.664 479.868 64.8063 479.367 63.9597 479.278C63.1048 479.181 62.3167 479.476 61.5953 480.163C60.8653 480.858 60.528 481.634 60.5833 482.493C60.6303 483.343 61.0883 484.224 61.9571 485.137L64.6753 487.992L63.8095 487.996L69.2977 482.77Z" fill="white"/>
<path d="M63.7393 470.234L53.9604 478.18L50.7254 474.198C49.8779 473.155 49.3458 472.072 49.1293 470.949C48.8958 469.825 48.9691 468.745 49.3492 467.709C49.7293 466.674 50.399 465.766 51.3582 464.987C52.3175 464.207 53.3428 463.738 54.4342 463.577C55.5256 463.417 56.6025 463.563 57.6648 464.014C58.7103 464.463 59.6567 465.21 60.5043 466.253L63.7393 470.234ZM62.0053 469.927L59.6556 467.035C58.9518 466.169 58.175 465.555 57.3252 465.194C56.4585 464.832 55.5833 464.716 54.6997 464.846C53.8068 464.984 52.9692 465.371 52.1868 466.007C51.3952 466.65 50.8452 467.39 50.5367 468.229C50.2282 469.067 50.1674 469.944 50.3542 470.859C50.5242 471.772 50.9611 472.662 51.6649 473.528L54.0145 476.419L62.0053 469.927Z" fill="white"/>
<path d="M46.1174 454.227L45.1831 454.838L42.6038 450.889L43.5381 450.279L46.1174 454.227Z" fill="white"/>
<path d="M24.4573 433.547L23.8535 432.38L35.0448 426.59L35.6485 427.757L24.4573 433.547ZM39.271 434.76L39.883 435.943L28.6918 441.732L28.0798 440.549L39.271 434.76ZM30.4267 430.317L34.1732 437.559L33.134 438.097L29.3875 430.854L30.4267 430.317Z" fill="white"/>
<path d="M33.4348 423.441L19.5844 423.119L19.0661 421.911L28.3721 411.648L28.926 412.938L20.1465 422.466L19.9335 421.97L32.8881 422.168L33.4348 423.441ZM29.4471 422.685L28.2985 422.747L25.4086 416.015L26.2448 415.225L29.4471 422.685Z" fill="white"/>
<path d="M27.0667 408.288L15.1618 412.415L13.617 407.959C13.2672 406.95 13.1309 406.026 13.2081 405.186C13.274 404.351 13.5462 403.634 14.0248 403.036C14.4882 402.431 15.1507 401.979 16.0124 401.68C16.8514 401.389 17.6458 401.336 18.3956 401.521C19.1302 401.698 19.7876 402.092 20.368 402.704C20.937 403.32 21.3965 404.132 21.7463 405.141L23.0494 408.899L22.2766 408.539L26.6303 407.029L27.0667 408.288ZM24.2483 400.158L20.9898 404.717L20.5181 403.357L23.7707 398.781L24.2483 400.158ZM22.3786 408.503L21.978 409.271L20.6867 405.546C20.2739 404.356 19.7007 403.545 18.9669 403.114C18.2291 402.671 17.3897 402.613 16.4487 402.939C15.4963 403.269 14.8674 403.836 14.5621 404.641C14.2528 405.434 14.3045 406.426 14.7173 407.616L16.0085 411.341L15.2187 410.986L22.3786 408.503Z" fill="white"/>
<path d="M22.4607 394.718L10.2342 397.763L8.99435 392.785C8.66952 391.481 8.64729 390.275 8.92767 389.166C9.19349 388.049 9.7182 387.102 10.5018 386.326C11.2854 385.549 12.2768 385.012 13.4762 384.713C14.6756 384.414 15.8033 384.424 16.8595 384.742C17.9158 385.06 18.8291 385.649 19.5996 386.508C20.3556 387.359 20.896 388.436 21.2208 389.74L22.4607 394.718ZM21.0209 393.704L20.1204 390.088C19.8506 389.005 19.4076 388.12 18.7912 387.433C18.1602 386.737 17.417 386.26 16.5616 386.003C15.6945 385.749 14.7719 385.744 13.7938 385.988C12.804 386.234 11.9916 386.672 11.3566 387.3C10.7216 387.928 10.2945 388.696 10.0754 389.604C9.84183 390.503 9.85988 391.494 10.1296 392.577L11.0301 396.192L21.0209 393.704Z" fill="white"/>
<path d="M13.7684 372.635L12.6524 372.635L12.6524 367.919L13.7684 367.919L13.7684 372.635Z" fill="white"/>
<path d="M5.48838 344.249L5.48838 342.935L18.0884 342.935L18.0884 344.249L5.48838 344.249ZM18.0884 352.133L18.0884 353.465L5.48838 353.465L5.48838 352.133L18.0884 352.133ZM12.2744 344.123L12.2744 352.277L11.1044 352.277L11.1044 344.123L12.2744 344.123Z" fill="white"/>
<path d="M18.0884 338.782L5.48838 333.022L5.48838 331.708L18.0884 325.948L18.0884 327.352L6.26238 332.644L6.26238 332.104L18.0884 337.396L18.0884 338.782ZM14.7224 336.514L13.6424 336.118L13.6424 328.792L14.7224 328.396L14.7224 336.514Z" fill="white"/>
<path d="M18.0884 321.831L5.48838 321.831L5.48838 317.115C5.48838 316.047 5.66238 315.129 6.01038 314.361C6.34638 313.593 6.83838 313.005 7.48638 312.597C8.12239 312.177 8.89639 311.967 9.80839 311.967C10.6964 311.967 11.4644 312.177 12.1124 312.597C12.7484 313.005 13.2404 313.593 13.5884 314.361C13.9244 315.129 14.0924 316.047 14.0924 317.115L14.0924 321.093L13.4804 320.499L18.0884 320.499L18.0884 321.831ZM18.0884 313.227L13.5164 316.467L13.5164 315.027L18.0884 311.769L18.0884 313.227ZM13.5884 320.499L12.9584 321.093L12.9584 317.151C12.9584 315.891 12.6824 314.937 12.1304 314.289C11.5784 313.629 10.8044 313.299 9.80838 313.299C8.80038 313.299 8.02038 313.629 7.46838 314.289C6.91638 314.937 6.64038 315.891 6.64038 317.151L6.64038 321.093L6.01038 320.499L13.5884 320.499Z" fill="white"/>
<path d="M18.0884 307.046L5.48838 307.046L5.48838 301.916C5.48838 300.572 5.75838 299.396 6.29838 298.388C6.82638 297.368 7.56438 296.576 8.51238 296.012C9.46038 295.448 10.5524 295.166 11.7884 295.166C13.0244 295.166 14.1164 295.448 15.0644 296.012C16.0124 296.576 16.7564 297.368 17.2964 298.388C17.8244 299.396 18.0884 300.572 18.0884 301.916L18.0884 307.046ZM16.9364 305.714L16.9364 301.988C16.9364 300.872 16.7204 299.906 16.2884 299.09C15.8444 298.262 15.2384 297.62 14.4704 297.164C13.6904 296.708 12.7964 296.48 11.7884 296.48C10.7684 296.48 9.87438 296.708 9.10638 297.164C8.33838 297.62 7.73838 298.262 7.30638 299.09C6.86238 299.906 6.64038 300.872 6.64038 301.988L6.64038 305.714L16.9364 305.714Z" fill="white"/>
</g>
</svg>
