<svg xmlns="http://www.w3.org/2000/svg" width="86" height="87" viewBox="0 0 86 87" fill="none">
  <rect y="0.5" width="86" height="86" rx="43" fill="black"/>
  <path d="M43.5 82.5C65.3152 82.5 83 64.8152 83 43C83 21.1848 65.3152 3.5 43.5 3.5C21.6848 3.5 4 21.1848 4 43C4 64.8152 21.6848 82.5 43.5 82.5Z" fill="black"/>
  <path d="M57.661 36.1299C46.2521 36.1299 46.2373 47.4959 46.2373 47.5543C46.2373 47.5543 45.4557 58.9344 57.661 58.9344C57.661 58.9344 67.8398 59.5132 67.8398 51.0144H62.6131C62.6131 51.0144 62.7863 54.2139 57.8349 54.2139C57.8349 54.2139 52.6082 54.5618 52.6082 49.045H68.0137C68.0137 49.045 69.7079 36.1299 57.661 36.1299ZM52.5497 45.0631C52.5497 45.0631 53.187 40.4877 57.7772 40.4877C62.3814 40.4877 62.3089 45.0631 62.3089 45.0631H52.5497ZM39.491 42.1389C39.491 42.1389 44.0228 41.8058 44.0228 36.4777C44.0228 31.1644 40.3163 28.5577 35.6106 28.5577H20.1318V58.3112H35.6092C35.6092 58.3112 45.0642 58.6013 45.0642 49.5231C45.0642 49.5231 45.4705 42.1389 39.491 42.1389ZM26.952 33.8422H35.6099C35.6099 33.8422 37.7096 33.8422 37.7096 36.9403C37.7096 40.0385 36.4788 40.4877 35.0741 40.4877H26.952V33.8422ZM35.1762 53.0268H26.952V45.0631H35.6099C35.6099 45.0631 38.7524 45.0343 38.7376 49.1604C38.7376 52.636 36.407 52.9979 35.1762 53.0268ZM51.2612 30.3096V33.9732H63.5397V30.3096H51.2612Z" fill="#F1F2F2"/>
</svg>
