<svg xmlns="http://www.w3.org/2000/svg" width="35" height="53" viewBox="0 0 35 53" fill="none">
  <g clip-path="url(#clip0_502_12225)">
    <path d="M8.75167 52.5C13.5807 52.5 17.4999 48.6174 17.4999 43.8334V35.1667H8.75167C3.92263 35.1667 0.00341797 39.0494 0.00341797 43.8334C0.00341797 48.6174 3.92263 52.5 8.75167 52.5Z" fill="#0ACF83"/>
    <path d="M0.00341797 26.5C0.00341797 21.716 3.92263 17.8333 8.75167 17.8333H17.4999V35.1666H8.75167C3.92263 35.1666 0.00341797 31.284 0.00341797 26.5Z" fill="#A259FF"/>
    <path d="M0.00390625 9.16667C0.00390625 4.38267 3.92312 0.5 8.75216 0.5H17.5004V17.8333H8.75216C3.92312 17.8333 0.00390625 13.9507 0.00390625 9.16667Z" fill="#F24E1E"/>
    <path d="M17.5 0.5H26.2483C31.0773 0.5 34.9965 4.38267 34.9965 9.16667C34.9965 13.9507 31.0773 17.8333 26.2483 17.8333H17.5V0.5Z" fill="#FF7262"/>
    <path d="M34.9965 26.5C34.9965 31.284 31.0773 35.1666 26.2483 35.1666C21.4192 35.1666 17.5 31.284 17.5 26.5C17.5 21.716 21.4192 17.8333 26.2483 17.8333C31.0773 17.8333 34.9965 21.716 34.9965 26.5Z" fill="#1ABCFE"/>
  </g>
  <defs>
    <clipPath id="clip0_502_12225">
      <rect width="35" height="52" fill="white" transform="translate(0 0.5)"/>
    </clipPath>
  </defs>
</svg>
