<svg width="20" height="20" viewBox="0 0 20 20" fill="none" xmlns="http://www.w3.org/2000/svg">
<path d="M9.99969 6.75C8.20477 6.75 6.74969 8.20507 6.74969 10C6.74969 11.7949 8.20477 13.25 9.99969 13.25C11.7946 13.25 13.2497 11.7949 13.2497 10C13.2497 8.20507 11.7946 6.75 9.99969 6.75Z" fill="black"/>
<path fill-rule="evenodd" clip-rule="evenodd" d="M4.76923 1.08147C8.21735 0.69609 11.7821 0.69609 15.2302 1.08147C17.1286 1.29364 18.6598 2.78942 18.8826 4.69447C19.2949 8.21948 19.2949 11.7805 18.8826 15.3055C18.6598 17.2106 17.1286 18.7064 15.2302 18.9185C11.7821 19.3039 8.21735 19.3039 4.76923 18.9185C2.87083 18.7064 1.33964 17.2106 1.11683 15.3055C0.704547 11.7805 0.704547 8.21948 1.11683 4.69447C1.33964 2.78942 2.87083 1.29364 4.76923 1.08147ZM14.9997 4C14.4474 4 13.9997 4.44772 13.9997 5C13.9997 5.55228 14.4474 6 14.9997 6C15.552 6 15.9997 5.55228 15.9997 5C15.9997 4.44772 15.552 4 14.9997 4ZM5.24969 10C5.24969 7.37665 7.37634 5.25 9.99969 5.25C12.623 5.25 14.7497 7.37665 14.7497 10C14.7497 12.6234 12.623 14.75 9.99969 14.75C7.37634 14.75 5.24969 12.6234 5.24969 10Z" fill="black"/>
</svg>

