<svg width="21" height="18" viewBox="0 0 21 18" fill="none" xmlns="http://www.w3.org/2000/svg">
<path fill-rule="evenodd" clip-rule="evenodd" d="M17.4833 16.7901L17.484 16.7883L17.5014 16.7448L20.5002 1.62577V1.57666C20.5002 1.19996 20.361 0.871103 20.0581 0.673844C19.793 0.501182 19.4882 0.488885 19.2745 0.505106C19.0485 0.522261 18.8354 0.578676 18.6879 0.625636C18.612 0.649796 18.5484 0.673075 18.503 0.690681C18.4802 0.699518 18.4617 0.707016 18.4483 0.712603L18.4351 0.71816L1.71526 7.2771L1.71066 7.27875C1.70163 7.28203 1.68969 7.28649 1.67526 7.2921C1.64651 7.3033 1.60737 7.31931 1.56139 7.34015C1.47111 7.38107 1.34637 7.44421 1.21987 7.53084C1.00502 7.67797 0.595904 8.02629 0.664986 8.57852C0.722207 9.03593 1.03751 9.32643 1.25008 9.47683C1.36403 9.55746 1.47304 9.6156 1.55287 9.6536C1.59332 9.67286 1.62767 9.68761 1.65326 9.69802C1.66609 9.70325 1.67682 9.70743 1.68512 9.71057L1.69574 9.71454L1.70253 9.71706L4.62777 10.7019C4.6179 10.8854 4.6361 11.0725 4.68478 11.2572L6.15006 16.8156C6.3238 17.4746 6.92002 17.9337 7.60159 17.9332C8.21252 17.9328 8.75435 17.5632 8.98454 17.0118L11.2722 14.5657L15.2012 17.5779L15.2571 17.6023C15.614 17.7581 15.9475 17.8074 16.2525 17.7658C16.557 17.7242 16.7989 17.5965 16.9807 17.4511C17.1595 17.308 17.2821 17.1465 17.3592 17.0249C17.3984 16.9631 17.4276 16.9088 17.4478 16.8679C17.458 16.8474 17.466 16.8301 17.472 16.8165L17.4796 16.7991L17.4822 16.7927L17.4833 16.7901ZM6.13518 10.8748C6.10187 10.7485 6.15416 10.6151 6.26444 10.5451L16.1865 4.24417C16.1865 4.24417 16.77 3.88987 16.7492 4.24417C16.7492 4.24417 16.8533 4.30673 16.5406 4.59846C16.244 4.87554 9.46894 11.4166 8.7834 12.0785C8.74383 12.1167 8.72021 12.1605 8.70627 12.2137L7.60046 16.4332L6.13518 10.8748Z" fill="black"/>
</svg>

