<svg xmlns="http://www.w3.org/2000/svg" width="102" height="102" viewBox="0 0 102 102" fill="none">
  <rect x="8" y="8" width="86" height="86" rx="43" fill="black"/>
  <path d="M25.957 36.5198L50.9488 47.1973L75.9406 36.5198L54.1977 52.8246L50.9488 79.8069L47.6998 52.8246L25.957 36.5198Z" fill="white"/>
  <path d="M102 51C102 79.1665 79.1665 102 51 102C22.8335 102 0 79.1665 0 51C0 22.8335 22.8335 0 51 0C79.1665 0 102 22.8335 102 51ZM2.47546 51C2.47546 77.7994 24.2006 99.5245 51 99.5245C77.7994 99.5245 99.5245 77.7994 99.5245 51C99.5245 24.2006 77.7994 2.47546 51 2.47546C24.2006 2.47546 2.47546 24.2006 2.47546 51Z" fill="black"/>
</svg>
